<svg id="katman_2" data-name="katman 2" xmlns="http://www.w3.org/2000/svg" viewBox="0 0 57.76 55"><defs><style>.cls-1{fill:#003d82;stroke-width:0}</style></defs><g id="bagis"><path class="cls-1" d="M51.64 53.31l.78-1.79 1.9.63-.17 1.16h-2.5zM17.27 5.19c-.09 0-.18-.01-.26-.01-1.3 0-2.42.8-3.02 2.12-.28 0-.66-.01-1.1-.1a5.29 5.29 0 01-2.61-1.37c.35-.54 1.01-1.43 1.96-2.26 1.95-1.68 4.13-2.24 6.5-1.66 2.81.69 3.81 3.1 3.55 5.04-.3 2.25-1.9 3.35-3.57 3.71.17-.14.32-.28.46-.44.61-.71.85-1.62.71-2.65-.18-1.3-1.26-2.28-2.62-2.39zm8.1 48.12h-2.44l.78-1.79 1.73.58-.07 1.22zm32.16-13.53s-1.79-1.92-2.2-4.1c-.34-1.81.08-3.33.57-5.08.41-1.48.84-3.02.84-4.88 0-4.2-2.41-7.31-6.8-8.77-2.81-.94-7.61-.88-12.7-.83-6.01.07-12.83.14-15.66-1.63-.54-.34-.93-1.45-1.28-2.54 2.19-.91 3.4-2.84 3.65-4.78.19-1.48-.13-2.97-.92-4.2-.87-1.36-2.22-2.3-3.91-2.71-2.89-.71-5.66 0-8.01 2.02C9.66 3.53 8.8 4.92 8.54 5.39c-5 4.22-8.28 9.5-8.41 9.73-.13.22-.16.48-.08.72l.54 1.55a2.634 2.634 0 002.51 1.78c.18 0 .35-.02.53-.05 1.32-.26 2.56-.34 3.75-.41 1.5-.1 2.95-.19 4.27-.68.49.9.89 2.37 1.34 4.04 1.22 4.47 2.88 10.56 8.23 13.24l1.54 6.44v7.71l-1.89 4.36a.845.845 0 00.78 1.18h4.52c.45 0 .82-.35.84-.8l1.02-16.92c.46.04 4.37-.02 4.83 0h.04c.45 0 .83-.36.84-.81a.841.841 0 00-.81-.88c-.46-.02-4.36.03-4.8 0l.09-1.44a.85.85 0 00-.79-.9.85.85 0 00-.9.79l-.98 16.28-1.16-.39c.04-.1.06-.21.06-.32v-7.99c0-.07 0-.13-.02-.2l-1.66-6.93a.82.82 0 00-.47-.57c-4.93-2.24-6.45-7.83-7.68-12.32-.48-1.75-.9-3.3-1.48-4.39.57-.41 1.1-.95 1.58-1.66a.84.84 0 00-.23-1.17.84.84 0 00-1.17.23C11.91 16.7 9.96 16.82 7.27 17c-1.18.08-2.53.16-3.96.44-.49.09-.96-.17-1.12-.62l-.4-1.17c.76-1.17 3.52-5.19 7.38-8.56 2.54 2.36 5.45 1.85 5.58 1.82.31-.06.56-.28.65-.58.46-1.46 1.45-1.5 1.74-1.47.48.04 1 .35 1.08.94.08.54-.03.97-.32 1.31-.68.8-2.26 1-2.81 1.01-.36 0-.68.24-.79.58-.11.34 0 .72.29.94.11.08 1.11.82 2.64.85h.2c.44 0 .86-.03 1.25-.09.45 1.44.96 2.87 2.01 3.52 3.26 2.04 10.03 1.96 16.58 1.89 4.94-.05 9.6-.11 12.14.74 4.66 1.55 5.64 4.75 5.64 7.17 0 1.63-.4 3.05-.78 4.43-.5 1.79-1.01 3.65-.6 5.85.39 2.1 1.76 3.92 2.35 4.63l-1.45 9.82-1.47-.49a.83.83 0 00.06-.21l1.21-8.7c.04-.32-.1-.64-.37-.82-5.99-3.93-8.08-7.62-8.7-9.03-.19-.43-.69-.62-1.12-.43-.43.19-.62.69-.43 1.12.13.28.31.65.55 1.09-1.69.64-6.61 2.36-11.31 2.63-.47.03-.82.43-.8.89.03.45.4.8.84.8h.05c5.34-.31 10.76-2.32 12.15-2.87 1.33 1.87 3.6 4.35 7.39 6.92l-1.12 8.06-1.91 4.42a.845.845 0 00.78 1.18h4.52c.42 0 .78-.31.84-.72l2.03-13.79a.82.82 0 00-.22-.7z"/><path class="cls-1" d="M8.76 10.28a.84.84 0 00-.84.85.85.85 0 10.85-.85z"/><path d="M9.16 7.1c2.54 2.36 5.45 1.85 5.58 1.82.31-.06.56-.28.65-.58.46-1.46 1.45-1.5 1.74-1.47.48.04 1 .35 1.08.94.08.54-.03.97-.32 1.31-.68.8-2.26 1-2.81 1.01-.36 0-.68.24-.79.58s0 .72.29.94c.11.08 1.11.82 2.64.85h.2c.39 0 .76-.04 1.11-.08.32-.09.64-.18.97-.26.29-.08.58-.15.88-.23 2.14-.92 3.33-2.83 3.58-4.75.19-1.48-.13-2.97-.92-4.2-.87-1.36-2.22-2.3-3.91-2.71-2.89-.71-5.66 0-8.01 2.02C9.67 3.54 8.81 4.93 8.55 5.4l-.02.02c.19.58.38 1.16.56 1.75.02-.02.05-.04.07-.06zm3.07-3.53c1.95-1.68 4.13-2.24 6.5-1.66 2.81.69 3.81 3.1 3.55 5.04-.3 2.25-1.9 3.35-3.57 3.71.17-.14.32-.28.46-.44.61-.71.85-1.62.71-2.65-.18-1.3-1.26-2.28-2.62-2.39-.09 0-.18-.01-.26-.01-1.3 0-2.42.8-3.02 2.12-.28 0-.66-.01-1.1-.1a5.29 5.29 0 01-2.61-1.37c.35-.54 1.01-1.43 1.96-2.26zm-3.47 6.71a.84.84 0 00-.84.85.85.85 0 10.85-.85z" fill="#ff9300" stroke-width="0"/></g></svg>