<svg id="katman_2" data-name="katman 2" xmlns="http://www.w3.org/2000/svg" viewBox="0 0 55 55"><defs><style>.cls-1,.cls-2{fill:#003d82;stroke-width:0}.cls-2{fill:#ff9300}</style></defs><g id="bagis"><path class="cls-2" d="M29.27 15.08H27.5v-4.44h1.77V4.79L20.63 0H18.4L9.76 4.8v5.85h1.77v4.44H9.76v5.32h19.52v-5.32zM18.86 1.77h1.31l6.39 3.55H12.47l6.39-3.55zM11.53 7.1H27.5v1.77H11.53V7.1zm14.2 3.55v4.44h-1.77v-4.44h1.77zm-3.55 0v4.44h-1.77v-4.44h1.77zm-3.55 0v4.44h-1.77v-4.44h1.77zm-3.55 0v4.44h-1.77v-4.44h1.77zm12.42 7.98H11.53v-1.77H27.5v1.77z"/><path class="cls-1" d="M37.26 24.84h1.77V10.1c0-1.66-1.34-3-3-3h-4.98v1.77h4.21c1.1 0 2 .9 2 2v13.97zm-2 28.39H8.87v-7.1h-7.1V10.87c0-1.1.9-2 2-2h4.21V7.1H3c-1.66 0-3 1.34-3 3v37.29l7.62 7.62h28.42c1.66 0 3-1.34 3-3v-4.1h-1.77v3.32c0 1.1-.9 2-2 2zM7.1 51.97L3.03 47.9H7.1v4.07z"/><path class="cls-1" d="M31.94 24.84c-6.36 0-11.53 5.17-11.53 11.53S25.58 47.9 31.94 47.9s11.53-5.17 11.53-11.53-5.17-11.53-11.53-11.53zm0 21.29c-5.38 0-9.76-4.38-9.76-9.76s4.38-9.76 9.76-9.76 9.76 4.38 9.76 9.76-4.38 9.76-9.76 9.76zm20.2-16.86l-1.9 2.66h-4.99c-.49 0-.89.4-.89.89s.4.89.89.89h3.73l-.38.54c-.28.4-.19.95.21 1.24.4.28.95.19 1.24-.21l4.29-6-4.29-6a.893.893 0 00-1.24-.21c-.4.28-.49.84-.21 1.24l.38.54h-7.27c-.49 0-.89.4-.89.89s.4.89.89.89h8.54l1.9 2.66z"/><path class="cls-2" d="M55 39.92c0-.49-.4-.89-.89-.89h-6.39l.38-.54c.28-.4.19-.95-.21-1.24a.895.895 0 00-1.24.21l-4.29 6 4.29 6c.28.4.84.49 1.24.21s.49-.84.21-1.24l-.38-.54h6.39c.49 0 .89-.4.89-.89s-.4-.89-.89-.89h-7.66l-1.9-2.66 1.9-2.66h7.66c.49 0 .89-.4.89-.89z"/><path class="cls-1" d="M19.52 39.92c0-.49-.4-.89-.89-.89H14.9l.38-.54c.28-.4.19-.95-.21-1.24a.895.895 0 00-1.24.21l-4.29 6 4.29 6c.28.4.84.49 1.24.21s.49-.84.21-1.24l-.38-.54h8.16c.49 0 .89-.4.89-.89s-.4-.89-.89-.89h-9.43l-1.9-2.66 1.9-2.66h4.99c.49 0 .89-.4.89-.89z"/><path class="cls-2" d="M15.97 35.48c.4.28.95.19 1.24-.21l4.29-6-4.29-6a.893.893 0 00-1.24-.21c-.4.28-.49.84-.21 1.24l.38.54H9.75c-.49 0-.89.4-.89.89s.4.89.89.89h7.66l1.9 2.66-1.9 2.66H9.75c-.49 0-.89.4-.89.89s.4.89.89.89h6.39l-.38.54c-.28.4-.19.95.21 1.24z"/><path class="cls-1" d="M36.94 37.11c-.23 2.78-1.73 4.97-5.53 4.97-.26 0-.58-.02-.86-.05v-4.69l-1.54.61v-.94l1.54-.61v-1.22l-1.54.61v-.96l1.54-.61v-3.55H32v2.99l2.83-1.12v.94L32 34.6v1.22l2.82-1.12v.96L32 36.78v4.09c1.92-.07 3.34-1.12 3.64-3.76h1.29z"/></g></svg>