<svg data-name="katman 2" xmlns="http://www.w3.org/2000/svg" viewBox="0 0 63.35 55"><path d="M41.2 42.48c-.1-1.18-.52-2.56-1.19-3.94-.62-1.31-1.47-2.6-2.51-3.62-.25.25-.51.5-.76.76-.15.16-.31.31-.46.46.84.83 1.61 1.99 2.18 3.16.59 1.22.95 2.46 1.02 3.32.04.43-.02.75-.06.87-.02.04 0 .03 0 .04-.11.01-.24 0-.47-.14-.24-.15-.54-.42-.86-.8-.63-.76-1.32-1.91-2.01-3.14-.37-.66-.74-1.34-1.1-2-.43.43-.86.85-1.28 1.27.29.52.58 1.05.87 1.58.7 1.25 1.42 2.46 2.2 3.4.39.46.8.87 1.28 1.16.47.29 1.05.47 1.65.37.61-.09 1.12-.58 1.33-1.1.21-.52.23-1.06.18-1.65zm-11.18-.41c-.13-.69-.39-1.45-.77-2.24-.45.43-.9.85-1.34 1.26.2.49.34.94.41 1.29.01.04 0 .03 0 .07-.21-.1-.43-.15-.9-.62l-.15-.15-1.28 1.16.22.22c.51.51 1.01.98 1.61 1.21.31.13.65.19 1.03.15.55-.06 1.04-.58 1.16-1.03.11-.39.1-.76.03-1.16 0-.05 0-.1-.02-.16zM63.13 44c-.46-1.57-1.51-2.94-2.62-4.01-1.81-1.73-4.45-2.78-6.54-3.38-.58-.76-1.79-2.08-3.48-3.08-.91-.55-1.95-.97-3.06-1.01-1.11-.04-2.29.38-3.22 1.36l-.61.63c-.09-.1-.18-.29-.27-.38-.73-.69-1.72-1.57-2.93-2.19a7.47 7.47 0 00-1.4-.57c-.33-.1-.69-.16-1.05-.19-.72.75-1.46 1.51-2.22 2.28.99-.51 1.92-.68 2.8-.43.2.06.4.13.6.22 1.15.48 2.22 1.38 3.01 2.13.33.32.92 1.18 1.53 2.19.6 1.01 1.27 2.2 1.93 3.3.67 1.09 1.32 2.09 2.01 2.79.35.34.71.64 1.21.78s1.17-.04 1.55-.44c.7-.73.85-1.76.71-2.75-.14-.98-.55-2-1.12-2.98-.89-1.55-2.21-2.87-3.65-3.81.34-.15.69-.23 1.07-.22.68.03 1.47.32 2.23.77 1.51.9 2.9 2.45 3.16 2.83l.18.25.29.08c1.96.55 4.58 1.64 6.08 3.07.96.91 1.82 2.12 2.16 3.25.34 1.14.25 2.14-.74 3.17-3.9 4.08-12.16 5.24-23.64 5.53-5.88.15-11.04.14-15.21-.42-1.53-.2-2.92-.48-4.17-.83-1.04-.31-1.98-.67-2.81-1.1-.66.34-1.31.63-1.95.87.81.53 1.7.97 2.67 1.34 1.76.68 3.78 1.14 6.03 1.44 4.35.57 9.58.58 15.49.42 11.56-.29 20.24-1.25 24.84-6.06 1.38-1.45 1.61-3.28 1.14-4.85zm-16.5-7.23c.69.68 1.35 1.51 1.84 2.35.48.85.8 1.7.89 2.38.09.6-.03.93-.21 1.18-.08-.05-.15-.08-.32-.24-.47-.48-1.11-1.41-1.75-2.47-.64-1.06-1.3-2.24-1.93-3.29-.4-.66-.77-1.1-1.15-1.6l.52.2c.66.26 1.41.8 2.11 1.49zm-12.94 1.95c.29.52.58 1.05.87 1.58.7 1.25 1.42 2.46 2.2 3.4.39.46.8.87 1.28 1.16.47.29 1.05.47 1.65.37.61-.09 1.12-.58 1.33-1.1.21-.52.23-1.06.18-1.65-.1-1.18-.52-2.56-1.19-3.94-.62-1.31-1.47-2.6-2.51-3.62-.04-.05-.09-.09-.14-.14-.53-.49-1.11-.91-1.74-1.21-.17.16-.33.33-.5.5-.28.28-.55.56-.82.83.63.17 1.26.56 1.88 1.14.03.03.07.06.1.1.84.83 1.61 1.99 2.18 3.16.59 1.22.95 2.46 1.02 3.32.04.43-.02.75-.06.87-.02.04 0 .03 0 .04-.11.01-.24 0-.47-.14-.24-.15-.54-.42-.86-.8-.63-.76-1.32-1.91-2.01-3.14-.37-.66-.74-1.34-1.1-2a48.3 48.3 0 00-.96-1.65c-.08-.13-.16-.25-.24-.37-.42.41-.84.83-1.25 1.23 0 .01.01.03.02.04.37.6.76 1.3 1.15 2.02zm-5.87 5.55c.31.13.65.19 1.03.15.55-.06 1.04-.58 1.16-1.03.11-.39.1-.76.03-1.16 0-.05 0-.1-.02-.16-.13-.69-.39-1.45-.77-2.24-.45.43-.9.85-1.34 1.26.2.49.34.94.41 1.29.01.04 0 .03 0 .07-.21-.1-.43-.15-.9-.62l-.15-.15-1.28 1.16.22.22c.51.51 1.01.98 1.61 1.21z" fill="#ff9300"/><path d="M37.36 34.78c-.53-.49-1.11-.91-1.74-1.21-.17.16-.33.33-.5.5-.28.28-.55.56-.82.83-.18.18-.36.35-.53.53-.42.41-.84.83-1.25 1.23 0 .01.01.03.02.04.37.6.76 1.3 1.15 2.02.42-.42.85-.84 1.28-1.27l1.31-1.31c.15-.15.31-.3.46-.46.25-.26.51-.51.76-.76-.04-.05-.09-.09-.14-.14zm14.3-33.34C49.78.36 47.52 0 45.47 0c-3.31 0-6.8 1.4-9.36 2.74-1.25-.19-3.62-.35-6.15.23-1.38.32-2.76.85-3.86 1.83-1.09.98-1.84 2.46-1.84 4.26v1.16c-.19-.01-.44-.11-.61-.11-1.82 0-4.4.12-6.67 1.31-2.27 1.19-4.12 3.64-4.12 7.54v.79c-.38 0-.79-.05-1.15.04-1.63.4-3.62 1.05-5.23 2.58-1.61 1.54-2.74 3.94-2.74 7.4v1.21s-.07.03-.11.08C2.29 33.21 0 38.64 0 44.31c0 3.61.81 6.28 2.27 8.07C3.73 54.19 5.83 55 7.98 55c2.52 0 5.06-.7 7.65-1.95.69-.33 1.39-.7 2.09-1.11 1.24-.72 2.5-1.56 3.79-2.49 2.04-1.49 4.14-3.23 6.31-5.18.73-.66 1.47-1.34 2.22-2.04 1.19-1.12 2.41-2.29 3.65-3.51.42-.42.85-.84 1.28-1.27l1.31-1.31c.15-.15.31-.3.46-.46.25-.26.51-.51.76-.76.55-.57 1.1-1.12 1.63-1.67.44-.44.86-.88 1.27-1.31C49.2 22.74 55 14.92 55 7.13c0-2.66-1.46-4.61-3.34-5.69zm-25.83 8.68c.88-.36 2.09-.53 3.39-.51 1.29.02 2.68.22 3.92.58 1.24.36 2.33.89 3.03 1.45.63.5.82.93.87 1.33-.11.03-.21.06-.52.05-.89-.02-2.35-.32-3.94-.75-1.58-.42-3.29-.95-4.85-1.38-.99-.28-1.75-.35-2.57-.5l.67-.27zm-11 9.63c.8-.84 2.09-1.26 3.71-1.27 1.62-.01 3.49.4 5.17 1.03s3.17 1.49 4.02 2.25c.42.38.66.73.73.89.01.04.02.04.03.04-.09.13-.24.23-.58.3-.36.08-.9.1-1.55.02-1.3-.14-3.02-.61-4.8-1.16-1.78-.55-3.63-1.18-5.32-1.62-.55-.15-1.04-.23-1.54-.33l.13-.15zm23.12 11.43c-.72.75-1.46 1.51-2.22 2.28-.04.03-.07.07-.11.11-.17.16-.33.33-.5.5-.28.28-.55.56-.82.83-.18.18-.36.35-.53.53-.42.41-.84.83-1.25 1.23-1.11 1.1-2.2 2.16-3.27 3.17-.45.43-.9.85-1.34 1.26-.22.2-.43.4-.64.59l-1.28 1.16c-2.03 1.8-3.97 3.4-5.83 4.76-1.82 1.33-3.57 2.42-5.25 3.24-.66.34-1.31.63-1.95.87-1.74.66-3.4 1.01-4.98 1.01s-2.92-.52-3.94-1.78c-1.02-1.25-1.76-3.36-1.76-6.63 0-4.74 2.01-9.63 3.07-11.52.29.04.62.09 1.08.18 1.13.21 2.66.54 4.26.82s3.26.52 4.72.54c1.46.03 2.83-.02 3.77-1.11.49-.56.47-1.51.18-2.05-.29-.54-.71-.91-1.21-1.28-1-.73-2.39-1.36-3.99-1.85-2.42-.73-5.33-1.12-7.8-.31.31-1.63.86-2.91 1.69-3.7 1.17-1.1 2.73-1.66 4.2-2.02.5-.12 1.84.01 3.41.43 1.57.41 3.41 1.03 5.23 1.6 1.81.56 3.61 1.07 5.22 1.25.8.09 1.56.1 2.28-.06.73-.16 1.45-.52 1.93-1.16.5-.65.54-1.59.26-2.27-.27-.68-.74-1.23-1.33-1.75-1.17-1.04-2.85-1.97-4.74-2.68-1.89-.71-3.98-1.19-5.99-1.18-.98.01-1.95.15-2.85.45.48-1.5 1.23-2.6 2.37-3.2 1.67-.87 3.91-1.05 5.61-1.05.61 0 1.96.29 3.47.7 1.51.42 3.23.95 4.87 1.39s3.17.8 4.48.83c.65.02 1.26-.02 1.87-.35.61-.32 1.09-1.11 1.09-1.84 0-1.34-.8-2.46-1.84-3.28-1.04-.82-2.36-1.42-3.8-1.84-2.27-.67-4.74-.73-6.98-.31.18-.46.45-.85.82-1.18.68-.61 1.7-1.05 2.84-1.31 2.27-.52 5.02-.3 5.62-.18l.4.07.36-.19c2.38-1.26 5.88-2.62 8.62-2.62 1.76 0 3.69.36 5.06 1.15 1.36.77 2.19 1.81 2.19 3.7 0 6.8-5.68 14.59-14.77 24.05zm-32.14-.63c.85-.58 2.01-.89 3.33-.93 1.41-.04 2.96.19 4.36.61 1.4.42 2.62 1.02 3.31 1.52.04.03.03.03.07.07-.3.09-.56.24-1.44.23-1.23-.02-2.81-.24-4.35-.51-1.54-.28-3.06-.6-4.24-.82-.4-.08-.71-.12-1.04-.17z" fill="#003d82"/></svg>