<svg id="katman_2" data-name="katman 2" xmlns="http://www.w3.org/2000/svg" viewBox="0 0 54.74 55"><defs><clipPath id="clippath"><rect width="54.74" height="55" fill="none" stroke-width="0"/></clipPath><style>.cls-2{stroke-width:0;fill:#ff9300}</style></defs><g clip-path="url(#clippath)" id="bagis"><path class="cls-2" d="M20.18 11.82c0 6.49 5.28 11.78 11.78 11.78s11.78-5.28 11.78-11.78S38.45.04 31.96.04 20.18 5.32 20.18 11.82zm21.41 0c0 5.31-4.32 9.64-9.64 9.64s-9.64-4.32-9.64-9.64 4.33-9.64 9.65-9.64 9.64 4.32 9.64 9.64z"/><path d="M12.39 54.55c.41.42 1.09.42 1.51 0l5.19-5.11c.88-.88 1.15-2.19.76-3.32l1.12-1.08c.6-.58 1.39-.9 2.23-.9h14.23c2.52 0 4.91-.97 6.72-2.73.07-.07-.57.68 9.71-11.6 1.52-1.8 1.3-4.51-.51-6.04-1.79-1.51-4.48-1.29-6.01.48l-6.32 6.49c-.8-.98-2.01-1.59-3.33-1.59H25.75c-1.7-.71-3.5-1.07-5.36-1.07-5.16 0-9.66 2.38-12.07 6.85-1.02-.19-2.09.11-2.86.89L.37 40.93c-.42.42-.42 1.09 0 1.51l12.02 12.11zm8-24.32c1.64 0 3.23.33 4.71.98.14.06.28.09.43.09h12.16c1.16 0 2.14.95 2.14 2.14s-.96 2.14-2.14 2.14h-8.73a1.071 1.071 0 000 2.14h8.73c2.36 0 4.28-1.92 4.28-4.28 0-.19-.01-.37-.04-.56 6.11-6.28 6.97-7.16 7.01-7.21a2.16 2.16 0 013.02-.26c.9.76 1.02 2.12.25 3.02l-9.6 11.48A7.432 7.432 0 0137.42 42H23.19c-1.39 0-2.71.53-3.72 1.5l-.91.88-8.39-8.39c1.96-3.68 5.64-5.77 10.21-5.77zM6.97 37.34c.35-.35.9-.42 1.33-.15.19.11-.35-.37 9.27 9.23.43.43.41 1.11 0 1.51l-4.43 4.36-10.52-10.6 4.34-4.35z" stroke-width="0" fill="#003d82"/><path class="cls-2" d="M36.26 12.51c-.23 2.78-1.73 4.97-5.53 4.97-.26 0-.58-.02-.86-.05v-4.69l-1.54.61v-.94l1.54-.61v-1.22l-1.54.61v-.96l1.54-.61V6.07h1.45v2.99l2.83-1.12v.94L31.32 10v1.22l2.82-1.12v.96l-2.82 1.12v4.09c1.92-.07 3.34-1.12 3.64-3.76h1.29z"/></g></svg>