<svg xmlns="http://www.w3.org/2000/svg" width="76" height="56" shape-rendering="geometricPrecision" text-rendering="geometricPrecision" image-rendering="optimizeQuality" fill-rule="evenodd" clip-rule="evenodd"><path fill="#163b7d" d="M4.5-.5h66a808.265 808.265 0 015 4v48a807.966 807.966 0 01-5 4h-66c-2-1.333-3.667-3-5-5v-46c1.333-2 3-3.667 5-5zm1 5c21.336-.167 42.67 0 64 .5a333.527 333.527 0 01.5 44.5 698.194 698.194 0 01-64.5.5 260.757 260.757 0 010-45.5zm45 10h10v6h-10v-6z" opacity=".817"/><path fill="#163b7d" d="M46.5 9.5c6.01-.166 12.01 0 18 .5a55.167 55.167 0 011 14.5h-20a61.278 61.278 0 011-15zm4 5v6h10v-6h-10z" opacity=".863"/><path fill="#ee9736" d="M10.5 30.5h50c.273 1.951-.393 3.451-2 4.5a552.472 552.472 0 01-47 0c-2.048-1.226-2.381-2.726-1-4.5z" opacity=".836"/><path fill="#163b7d" d="M10.5 40.5h14c.213 1.644-.12 3.144-1 4.5a42.498 42.498 0 01-13 0c-1.228-1.49-1.228-2.99 0-4.5z" opacity=".753"/><path fill="#163b7d" d="M30.5 40.5c6.342-.166 12.675 0 19 .5 1.333 1.333 1.333 2.667 0 4-6 .667-12 .667-18 0-.88-1.356-1.213-2.856-1-4.5z" opacity=".768"/></svg>