<svg id="katman_2" data-name="katman 2" xmlns="http://www.w3.org/2000/svg" viewBox="0 0 67.44 55"><defs><style>.cls-1,.cls-2{fill:#003d82;stroke-width:0}.cls-2{fill:#ff9300}</style></defs><g id="bagis"><path class="cls-2" d="M67.41 23.13L61.08 1.27a.852.852 0 00-.43-.52.849.849 0 00-.67-.04l-1.47.54-.2-.66a.839.839 0 00-.43-.51.779.779 0 00-.37-.09c-.1 0-.2.02-.3.05-4.07 1.53-6.06 2.03-14.84 3.05-5.15.6-7.56 2.66-8.67 4.43-1.11-1.77-3.51-3.84-8.66-4.43C16.27 2.08 14.28 1.58 10.21.05a.729.729 0 00-.3-.05c-.13 0-.26.03-.37.09-.21.1-.36.29-.43.51l-.2.65L7.44.71a.849.849 0 00-1.1.55L.03 23.13c-.13.44.11.89.55 1.03l19.06 6.15-7.81 6.28c-.2.16-.31.4-.31.65v4.49c0 .34.2.64.51.77.1.04.21.07.33.07.22 0 .43-.08.59-.24l3.63-3.54a1.183 1.183 0 011.67.03l.7.72c.22.23.34.52.33.84 0 .31-.13.61-.36.83l-7.15 6.99a.84.84 0 00-.25.6v5.37c0 .34.2.64.51.77a.834.834 0 00.91-.16l20.77-19.66 20.8 19.66a.834.834 0 00.91.16.84.84 0 00.51-.77V48.8c0-.22-.09-.44-.25-.6l-7.15-6.99a1.187 1.187 0 01-.03-1.67l.7-.72c.22-.23.52-.36.85-.36s.6.12.82.33l3.63 3.54c.16.15.37.24.59.24.11 0 .22-.02.33-.07a.83.83 0 00.51-.77v-4.49c0-.26-.11-.49-.31-.65l-7.81-6.29 19.05-6.14c.43-.14.68-.59.55-1.03zM10.46 1.94c3.66 1.34 6 1.86 14.4 2.83 6.25.72 7.65 3.74 7.94 4.75-2.1-2.19-5.32-3-7.75-3.28-6.21-.72-9.74-1.27-14.93-3.18l.34-1.12zm2.74 50.27v-3.07l6.89-6.74c.55-.53.86-1.25.87-2.01a2.84 2.84 0 00-.81-2.03l-.7-.72c-.54-.56-1.27-.87-2.05-.87s-1.46.29-1.99.81l-2.21 2.15v-2.1l8.36-6.72 1.92.62-2.42 2.42c-.33.33-.33.86 0 1.19.16.16.37.25.59.25s.43-.09.59-.25l3.03-3.03 2.69.87-5.63 5.64c-.33.33-.33.86 0 1.19.16.16.37.25.59.25s.44-.09.59-.25l6.24-6.25 2.35.76-18.91 17.89zm19.67-19.4l-31-10L7.72 2.6l.72.26-5.37 17.81c-.13.42.1.87.51 1.03 2.74 1.03 10.32 3.5 21.34 4.08 7.02.37 7.87 4.43 7.96 4.98v2.05zm0-13.4h-1.83c-.46 0-.84.38-.84.84s.38.84.84.84h1.83v.26h-4.45c-.46 0-.84.38-.84.84s.38.84.84.84h4.45v4.23c-1.22-1.35-3.55-2.91-7.87-3.14-9.77-.52-16.71-2.51-20.1-3.71l.13-.42h3.48c.46 0 .84-.38.84-.84s-.38-.84-.84-.84H5.54l.87-2.89h8.39c.46 0 .84-.38.84-.84s-.38-.84-.84-.84H6.91l.54-1.78h3c.46 0 .84-.38.84-.84s-.38-.84-.84-.84H7.96l1.69-5.62c4.05 1.49 7.31 2.32 15.22 3.24 6.99.81 7.91 4.5 8.01 5.01v6.49zm9.71-14.64c8.4-.97 10.74-1.49 14.4-2.83l.36 1.2c-4.91 1.8-8.52 2.35-14.95 3.1-4.16.48-6.49 1.95-7.78 3.29.3-.99 1.7-4.04 7.97-4.76zm-8.03 11.68h8.52c.46 0 .84-.38.84-.84s-.38-.84-.84-.84h-8.52v-1.86c.1-.52 1.05-4.21 8.03-5.01 8.19-.95 11.4-1.75 15.24-3.15l.96 3.18h-4.65c-.46 0-.84.38-.84.84s.38.84.84.84h5.16l.18.6h-.57c-.46 0-.84.38-.84.84s.38.84.84.84h1.08l1.62 5.37H56c-.46 0-.84.38-.84.84s.38.84.84.84h6.1l.44 1.46c-3.39 1.2-10.32 3.19-20.1 3.71-4.33.23-6.67 1.8-7.89 3.15V16.45zm19.7 21.19v2.1l-2.21-2.15a2.849 2.849 0 00-4.04.06l-.7.72a2.857 2.857 0 00.05 4.04l6.9 6.74v3.07L35.31 34.33l3.06-.99 3.58 3.58c.16.16.37.25.59.25s.44-.09.59-.25c.16-.16.25-.37.25-.59s-.09-.43-.25-.59l-2.98-2.98 5.73-1.85 8.35 6.73zm-19.7-4.83v-2.05c.09-.55.96-4.61 7.98-4.98 11.02-.58 18.59-3.05 21.34-4.08.41-.15.63-.61.51-1.03L59.02 2.86l.72-.26 5.85 20.21-31.02 10z"/><path class="cls-2" d="M21.58 11.12c0 .46-.38.84-.84.84h-4.63c-.46 0-.84-.38-.84-.84s.38-.84.84-.84h4.63c.46 0 .84.38.84.84z"/><path class="cls-1" d="M33.71 35.11l33.15-10.95c.43-.14.68-.59.55-1.03L61.08 1.27a.852.852 0 00-.43-.52.849.849 0 00-.67-.04l-1.47.54-.2-.66a.839.839 0 00-.43-.51.779.779 0 00-.37-.09c-.1 0-.2.02-.3.05-4.07 1.53-6.06 2.03-14.84 3.05-5.15.6-7.56 2.66-8.67 4.43-1.11-1.77-3.51-3.84-8.66-4.43C16.27 2.08 14.28 1.58 10.21.05a.729.729 0 00-.3-.05c-.13 0-.26.03-.37.09-.21.1-.36.29-.43.51l-.2.65L7.44.71a.849.849 0 00-1.1.55L.03 23.13c-.13.44.11.89.55 1.03l19.06 6.15M10.46 1.94c3.66 1.34 6 1.86 14.4 2.83 6.25.72 7.65 3.74 7.94 4.75-2.1-2.19-5.32-3-7.75-3.28-6.21-.72-9.74-1.27-14.93-3.18l.34-1.12zm22.41 30.87l-31-10L7.72 2.6l.72.26-5.37 17.81c-.13.42.1.87.51 1.03 2.74 1.03 10.32 3.5 21.34 4.08 7.02.37 7.87 4.43 7.96 4.98v2.05zm0-13.4h-1.83c-.46 0-.84.38-.84.84s.38.84.84.84h1.83v.26h-4.45c-.46 0-.84.38-.84.84s.38.84.84.84h4.45v4.23c-1.22-1.35-3.55-2.91-7.87-3.14-9.77-.52-16.71-2.51-20.1-3.71l.13-.42h3.48c.46 0 .84-.38.84-.84s-.38-.84-.84-.84H5.54l.87-2.89h8.39c.46 0 .84-.38.84-.84s-.38-.84-.84-.84H6.91l.54-1.78h3c.46 0 .84-.38.84-.84s-.38-.84-.84-.84H7.96l1.69-5.62c4.05 1.49 7.31 2.32 15.22 3.24 6.99.81 7.91 4.5 8.01 5.01v6.49zm9.71-14.64c8.4-.97 10.74-1.49 14.4-2.83l.36 1.2c-4.91 1.8-8.52 2.35-14.95 3.1-4.16.48-6.49 1.95-7.78 3.29.3-.99 1.7-4.04 7.97-4.76zm-8.03 11.68h8.52c.46 0 .84-.38.84-.84s-.38-.84-.84-.84h-8.52v-1.86c.1-.52 1.05-4.21 8.03-5.01 8.19-.95 11.4-1.75 15.24-3.15l.96 3.18h-4.65c-.46 0-.84.38-.84.84s.38.84.84.84h5.16l.18.6h-.57c-.46 0-.84.38-.84.84s.38.84.84.84h1.08l1.62 5.37H56c-.46 0-.84.38-.84.84s.38.84.84.84h6.1l.44 1.46c-3.39 1.2-10.32 3.19-20.1 3.71-4.33.23-6.67 1.8-7.89 3.15V16.45zm0 16.36v-2.05c.09-.55.96-4.61 7.98-4.98 11.02-.58 18.59-3.05 21.34-4.08.41-.15.63-.61.51-1.03L59.02 2.86l.72-.26 5.85 20.21-31.02 10z"/><path class="cls-1" d="M21.58 11.12c0 .46-.38.84-.84.84h-4.63c-.46 0-.84-.38-.84-.84s.38-.84.84-.84h4.63c.46 0 .84.38.84.84z"/></g></svg>