<svg xmlns="http://www.w3.org/2000/svg" width="76" height="56" shape-rendering="geometricPrecision" text-rendering="geometricPrecision" image-rendering="optimizeQuality" fill-rule="evenodd" clip-rule="evenodd"><path fill="#003d81" d="M1.5-.5h71a303.896 303.896 0 003 4v48c-1 1.667-2.333 3-4 4h-68a303.896 303.896 0 00-4-3v-50c.901-.79 1.568-1.79 2-3zm7 5h57a255.18 255.18 0 01-28.5 19 893.828 893.828 0 01-28.5-19zm-4 4a529.783 529.783 0 0033 21 852.208 852.208 0 0033-21 436.525 436.525 0 01-1 41.5c-21.664.5-43.33.667-65 .5v-42z" opacity=".843"/><path fill="#ed9637" d="M8.5 4.5a893.828 893.828 0 0028.5 19 255.18 255.18 0 0028.5-19 20.676 20.676 0 015-1v5a852.208 852.208 0 01-33 21 529.783 529.783 0 01-33-21c-1.672-4.328-.339-5.661 4-4zm0 0h57a255.18 255.18 0 01-28.5 19 893.828 893.828 0 01-28.5-19z" opacity=".822"/></svg>