<svg version="1.0" xmlns="http://www.w3.org/2000/svg" width="100" height="101.333" viewBox="0 0 75 76"><path d="M30.7 1.4C21.6 4.7 16 12.4 16 21.8c0 5.5 1.9 11.3 4.8 14.5 1.6 1.9 1.6 2-.2 3.1-1.1.6-4.2 2.9-7 5.1C4.2 52-2.6 69.9 2.5 73.6 4 74.7 11.3 75 38.2 75H72l1.6-2.5c2-3.1 1.3-8.2-2.5-16.1-2.8-5.9-10.7-14.4-15.5-16.5l-2.4-1.1 2.8-4.5C61.9 25 60.8 14.7 53.1 7 46.6.5 38.8-1.4 30.7 1.4zm15 5.2c5 2.4 8.5 7.6 9.1 13.4.6 6.8-.3 9.5-4.9 14.5-2.2 2.4-3.8 4.8-3.5 5.4.3.5 2.6 1.9 4.9 3 7 3.4 12.4 8.7 15.6 15.4 1.7 3.4 3.2 7.5 3.3 9.2l.3 3h-65l.2-3.7c.5-8.6 8.6-19.1 18.1-23.5 5.8-2.7 6.5-4.5 2.6-7.6-3.2-2.5-6.3-9.1-6.4-13.4C19.9 9.7 34 1.1 45.7 6.6z"/></svg>