<svg xmlns="http://www.w3.org/2000/svg" width="76" height="76" shape-rendering="geometricPrecision" text-rendering="geometricPrecision" image-rendering="optimizeQuality" fill-rule="evenodd" clip-rule="evenodd"><path fill="#003c82" d="M11.5-.5h6a106.902 106.902 0 0112.5 17c.635 2.135.301 4.135-1 6a25.402 25.402 0 00-5.5 6.5c5.488 9.487 12.987 16.987 22.5 22.5a34.692 34.692 0 017.5-6.5c2-.667 4-.667 6 0a323.08 323.08 0 0116 12.5v4c-4.73 7.392-11.397 12.059-20 14h-7c-22.719-8.381-39.052-23.715-49-46v-13c2.268-6.863 6.268-12.53 12-17zm1 5c2.403-.107 4.236.893 5.5 3l7.5 11a106.732 106.732 0 00-8 9.5c5.933 12.267 14.933 21.6 27 28 1.333.667 2.667.667 4 0l6-6c1.333-.667 2.667-.667 4 0a163.786 163.786 0 0012 9.5c-7.298 10.597-16.964 13.43-29 8.5-19.096-9.918-31.762-25.085-38-45.5.897-7.128 3.897-13.128 9-18z" opacity=".797"/><path fill="#ee9736" d="M37.5 6.5c20.46.284 29.794 10.45 28 30.5-1.284.684-2.45.517-3.5-.5.372-16.629-7.794-25.129-24.5-25.5-1.228-1.49-1.228-2.99 0-4.5z" opacity=".773"/><path fill="#ee9736" d="M42.5 16.5c7.972-.857 12.639 2.643 14 10.5-.45 3.876-1.95 4.71-4.5 2.5-.616-5.95-3.95-9.283-10-10-.47-1.077-.303-2.077.5-3z" opacity=".767"/></svg>