<svg id="katman_2" data-name="katman 2" xmlns="http://www.w3.org/2000/svg" viewBox="0 0 40.5 55"><defs><style>.cls-2{stroke-width:0;fill:#ff9300}</style></defs><g id="bagis"><path class="cls-2" d="M20.25 12.07c-2.15 0-3.9 1.75-3.9 3.9s1.75 3.9 3.9 3.9 3.9-1.75 3.9-3.9-1.75-3.9-3.9-3.9zm0 6.18c-1.26 0-2.29-1.03-2.29-2.29s1.03-2.29 2.29-2.29 2.29 1.03 2.29 2.29-1.03 2.29-2.29 2.29z"/><path d="M40.5 26.71c0-.11-.02-.2-.07-.3l-4.23-9.46c-.25-.55-.8-.91-1.4-.91h-4.64V1.71c0-.95-.77-1.71-1.71-1.71h-16.4c-.95 0-1.71.77-1.71 1.71v14.33H5.7c-.6 0-1.15.36-1.4.91L.07 26.41c-.05.1-.07.21-.07.32V46.8c0 .44.36.81.81.81s.81-.36.81-.81V27.54H38.9v25.85H1.61V40.55c0-.44-.36-.81-.81-.81s-.8.37-.8.81v12.92C0 54.31.69 55 1.53 55h37.44c.84 0 1.53-.69 1.53-1.53V26.71zm-28.55-25c0-.06.05-.1.1-.1h16.4c.06 0 .1.05.1.1v19.27h-1.49v-8.91c0-.44-.36-.81-.81-.81s-.81.36-.81.81v8.91h-10.4V4.89h10.4v13.46c0 .44.36.81.81.81s.81-.36.81-.81V4.75c0-.81-.66-1.47-1.47-1.47H14.9c-.81 0-1.47.66-1.47 1.47v16.24h-1.49V1.71zm-9.9 24.22l3.7-8.27h4.58v3.33H9.26c-.44 0-.81.36-.81.81s.36.81.81.81h21.97c.44 0 .81-.36.81-.81s-.36-.81-.81-.81h-1.07v-3.33h4.59l3.7 8.27H2.05z" stroke-width="0" fill="#003d82"/><path class="cls-2" d="M20.82 29.98h-.25c-5.78 0-10.48 4.7-10.48 10.48s4.7 10.48 10.48 10.48c2.17 0 4.25-.66 6.02-1.9 1.73-1.21 3.04-2.89 3.78-4.86.13-.35 0-.74-.3-.95a.798.798 0 00-.99.07 7.187 7.187 0 01-12.01-5.32c0-2.75 1.6-5.29 4.08-6.48a.8.8 0 00.44-.9.8.8 0 00-.77-.63zm-5.36 8.01c0 4.85 3.94 8.79 8.79 8.79 1.05 0 2.08-.19 3.05-.55-1.66 1.92-4.11 3.1-6.73 3.1-4.89 0-8.87-3.98-8.87-8.87 0-3.93 2.56-7.26 6.1-8.43a8.83 8.83 0 00-2.34 5.96z"/><path class="cls-2" d="M28.29 35.98c-.13-.41-.49-.71-.92-.77l-1.7-.25-.76-1.54c-.19-.39-.58-.63-1.02-.63s-.83.24-1.02.63l-.76 1.54-1.7.25c-.43.06-.78.36-.92.77-.13.41-.02.86.29 1.17l1.23 1.2-.29 1.69c-.07.43.1.86.45 1.11.35.26.81.29 1.2.09l1.52-.8 1.52.8c.17.09.35.13.53.13.23 0 .47-.07.67-.22.35-.26.53-.68.45-1.11l-.29-1.69 1.23-1.2c.31-.3.42-.75.29-1.17zm-2.82 1.38c-.27.26-.39.64-.33 1.01l.17.99-.89-.47c-.33-.17-.73-.17-1.06 0l-.89.47.17-.99c.06-.37-.06-.75-.33-1.01l-.72-.7.99-.14c.37-.05.69-.29.86-.62l.44-.9.44.9c.17.34.49.57.86.62l.99.14-.72.7z"/></g></svg>