<svg xmlns="http://www.w3.org/2000/svg" width="76" height="76" shape-rendering="geometricPrecision" text-rendering="geometricPrecision" image-rendering="optimizeQuality" fill-rule="evenodd" clip-rule="evenodd"><path fill="#163b7d" d="M10.5-.5h4v10h46c-.247-3.439.086-6.772 1-10h4v10c3.933-.643 7.266.357 10 3v59c-1.772 1.79-3.772 3.123-6 4h-63c-3.243-.908-5.577-2.908-7-6v-54c1.685-5.31 5.352-7.31 11-6v-10zm-5 15c21.677-.333 43.344 0 65 1a23.843 23.843 0 011 9h-67c-.247-3.439.086-6.772 1-10zm-1 15h67a276.794 276.794 0 01-1.5 40 676.788 676.788 0 01-63.5.5L5 68.5a760.934 760.934 0 01-.5-39z" opacity=".863"/><path fill="#ee9736" d="M33.5 36.5h12v4a21.12 21.12 0 00-9 1 6.845 6.845 0 00-1 4c8.275-.794 11.442 2.873 9.5 11-1.873 3.527-4.873 5.193-9 5-4.31.483-5.81-1.184-4.5-5 2.603 1.062 5.27 1.228 8 .5 3.033-3.571 2.366-6.238-2-8a18.436 18.436 0 00-6-.5 86.79 86.79 0 012-12z" opacity=".751"/></svg>