<svg data-name="katman 2" xmlns="http://www.w3.org/2000/svg" viewBox="0 0 69.24 55"><path d="M51.94 37.42c.6-.3 1.2-.59 1.8-.89.38-.19.77-.37 1.16-.56a6.176 6.176 0 001.3-7.59c.04-.09.07-.18.09-.28l.62-2.87c.54-2.52-.14-5.15-1.82-7.09l-5.51-6.35a8.18 8.18 0 00-6.34-2.82l-22.5.43L2.15.16C1.69-.07 1.14-.05.71.22.27.49 0 .97 0 1.49v22.34c0 .59.34 1.12.88 1.36l11.59 5.23 2.24 2.74c2.53 3.09 6.03 5.23 9.93 6.08.08.02.16.03.23.05.02 0 .05.01.07.02.98.21 1.98.32 2.98.32h.21a5.226 5.226 0 005.54 2.8l1.76-.3c1.03.72 2.31 1.01 3.55.8l3.53-.6c-.11-.37-.23-.74-.35-1.11-.18-.59-.36-1.17-.53-1.76l-3.15.54c-.71.12-1.43-.19-1.82-.8a1.91 1.91 0 01-.2-1.63c.1-.3.28-.57.53-.77l1.43-.71 3.35.41c.1 0 .17.02.2.02.76.08 1.52.18 2.28.27.76.09 1.52.19 2.28.29h.02l3.52.43c.63.08 1.26.05 1.88-.06zm-18.78 2.06c-.56.1-1.13-.02-1.6-.33.62-.16 1.23-.37 1.83-.62.02.3.07.6.15.89l-.38.06zm5.16-6.43c-.29-.04-.58.02-.85.15l-1.15.57h-.01c-.31.11-.61.26-.89.45l-2.49 1.24a11.27 11.27 0 01-7.29.95l-.13-.03-.27-.06c-3.24-.7-6.15-2.48-8.24-5.05l-2.46-3.01c-.15-.18-.33-.32-.54-.42L2.97 22.86V3.9l16.74 8.34c.22.1.45.16.69.16l22.87-.44h.1c1.51 0 2.95.65 3.93 1.79l5.52 6.35a5.24 5.24 0 011.16 4.51l-.28 1.32c-.51-.27-1.05-.46-1.61-.58l-2.71-.58.31-1.46c.17-.8-.34-1.6-1.14-1.77-.8-.17-1.6.34-1.77 1.14l-.31 1.46-2.13-.46-1.68-4.25c-.3-.77-1.17-1.14-1.93-.84-.76.3-1.14 1.17-.84 1.93l.95 2.41-3.13-.67a1.489 1.489 0 00-1.79 1.13c-.08.39 0 .8.21 1.13.22.33.56.57.95.64l14.38 3.1c1.66.36 2.75 1.96 2.47 3.64a3.171 3.171 0 01-3.52 2.63l-12.09-1.48z" fill="#003d82"/><path d="M67.29 34.33c-2.62-2.61-6.87-2.61-9.47 0l-2.34 2.34-.64-.62s.04-.03.05-.05c-.39.18-.77.36-1.16.56-.6.29-1.21.58-1.8.88.03 0 .05-.01.08-.01l2.41 2.41c.27.27.65.43 1.05.43s.77-.16 1.05-.43l3.39-3.39a3.736 3.736 0 015.27 0 3.724 3.724 0 010 5.26l-9.71 9.71-9.71-9.71a3.73 3.73 0 01-.4-4.79c-.38-.05-.75-.1-1.13-.14-.77-.09-1.52-.18-2.28-.27-.01 0-.08-.01-.16-.01l.4.05c-.34.8-.51 1.66-.51 2.53 0 .13.01.25.01.36h-.09c.18.61.35 1.19.53 1.78.12.36.23.74.35 1.12h.04c.3.55.67 1.04 1.12 1.49L54.4 54.59c.29.27.66.43 1.06.43s.77-.16 1.05-.43l10.76-10.76a6.73 6.73 0 000-9.49z" fill="#ff9300"/></svg>